<?xml version="1.0" encoding="UTF-8" standalone="no"?>
<!-- Generator: Adobe Illustrator 16.0.0, SVG Export Plug-In . SVG Version: 6.00 Build 0)  -->

<svg
   xmlns:dc="http://purl.org/dc/elements/1.1/"
   xmlns:cc="http://creativecommons.org/ns#"
   xmlns:rdf="http://www.w3.org/1999/02/22-rdf-syntax-ns#"
   xmlns:svg="http://www.w3.org/2000/svg"
   xmlns="http://www.w3.org/2000/svg"
   xmlns:sodipodi="http://sodipodi.sourceforge.net/DTD/sodipodi-0.dtd"
   xmlns:inkscape="http://www.inkscape.org/namespaces/inkscape"
   version="1.1"
   id="Capa_1"
   x="0px"
   y="0px"
   width="792px"
   height="792px"
   viewBox="0 0 792 792"
   style="enable-background:new 0 0 792 792;"
   xml:space="preserve"
   sodipodi:docname="number-2.svg"
   inkscape:version="0.92.1 r15371"><metadata
     id="metadata3773"><rdf:RDF><cc:Work
         rdf:about=""><dc:format>image/svg+xml</dc:format><dc:type
           rdf:resource="http://purl.org/dc/dcmitype/StillImage" /><dc:title></dc:title></cc:Work></rdf:RDF></metadata><defs
     id="defs3771" /><sodipodi:namedview
     pagecolor="#ffffff"
     bordercolor="#666666"
     borderopacity="1"
     objecttolerance="10"
     gridtolerance="10"
     guidetolerance="10"
     inkscape:pageopacity="0"
     inkscape:pageshadow="2"
     inkscape:window-width="1858"
     inkscape:window-height="1057"
     id="namedview3769"
     showgrid="false"
     showguides="true"
     inkscape:guide-bbox="true"
     inkscape:zoom="1.1212121"
     inkscape:cx="243.04054"
     inkscape:cy="396"
     inkscape:window-x="-8"
     inkscape:window-y="-8"
     inkscape:window-maximized="1"
     inkscape:current-layer="g3733"><sodipodi:guide
       position="359.43243,719.75676"
       orientation="1,0"
       id="guide4646"
       inkscape:locked="false" /><sodipodi:guide
       position="-63.324324,338.91892"
       orientation="0,1"
       id="guide4648"
       inkscape:locked="false" /></sodipodi:namedview><g
     id="g3736"><g
       id="Pin_1_"><g
         id="g3733"><path
           d="m 115.98571,115.98571 c -115.97823539,115.97824 -115.96126482,304.06016 0,420.02143 41.9675,41.9675 93.36709,68.72583 147.37449,80.34642 l 355.86351,76.40926 c 19.82869,4.25254 41.37211,-1.33007 56.79058,-16.74853 15.41846,-15.41847 21.00107,-36.96189 16.73085,-56.80826 L 616.33659,263.34323 C 604.73297,209.3528 577.97464,157.95321 536.00714,115.98571 420.04587,0.02444518 231.98163,-0.01020306 115.98571,115.98571 Z M 543.74218,278.95474 616.16123,616.16123 278.971,543.75986 c -41.86214,-8.99581 -80.06641,-29.8392 -110.48261,-60.2554 -86.856751,-86.85675 -86.839781,-228.17628 0,-315.01607 86.83979,-86.839781 228.15932,-86.856751 315.01607,0 30.41691,30.41691 51.2603,68.62118 60.23772,110.46635 z"
           id="path3731"
           inkscape:connector-curvature="0"
           sodipodi:nodetypes="ssccsccsscccsssc"
           style="fill:#03a9f4;fill-opacity:1" /><path
           style="fill:#03a9f4;stroke-width:2"
           d="m 396.19274,403.64329 h -64.076 c 31.322,-36.918 81.704,-79.506 81.704,-127.472 0,-43.82 -33.128,-71.764 -78.432,-71.764 -45.322,0 -87.694,35.954 -87.694,79.434 0,13.462 9.208,25.172 26.89,25.172 35.382,0 16.216,-56.996 58.588,-56.996 15.108,0 26.532,12.408 26.532,26.568 0,12.408 -6.276,23.116 -12.908,32.092 -27.998,37.938 -61.162,68.992 -91.734,103.158 -3.682,4.13 -8.492,10.352 -8.492,17.592 0,15.876 12.532,22.76 28.73,22.76 h 123.056 c 13.998,0 26.532,-9.136 26.532,-24.994 0,-15.86 -12.498,-25.55 -28.696,-25.55 z"
           id="path5095"
           inkscape:connector-curvature="0"
           sodipodi:nodetypes="scssssssccsssss" /></g></g></g><g
     id="g3738" /><g
     id="g3740" /><g
     id="g3742" /><g
     id="g3744" /><g
     id="g3746" /><g
     id="g3748" /><g
     id="g3750" /><g
     id="g3752" /><g
     id="g3754" /><g
     id="g3756" /><g
     id="g3758" /><g
     id="g3760" /><g
     id="g3762" /><g
     id="g3764" /><g
     id="g3766" /></svg>