<?xml version="1.0" encoding="UTF-8" standalone="no"?>
<!-- Generator: Adobe Illustrator 16.0.0, SVG Export Plug-In . SVG Version: 6.00 Build 0)  -->

<svg
   xmlns:dc="http://purl.org/dc/elements/1.1/"
   xmlns:cc="http://creativecommons.org/ns#"
   xmlns:rdf="http://www.w3.org/1999/02/22-rdf-syntax-ns#"
   xmlns:svg="http://www.w3.org/2000/svg"
   xmlns="http://www.w3.org/2000/svg"
   xmlns:sodipodi="http://sodipodi.sourceforge.net/DTD/sodipodi-0.dtd"
   xmlns:inkscape="http://www.inkscape.org/namespaces/inkscape"
   version="1.1"
   id="Capa_1"
   x="0px"
   y="0px"
   width="792px"
   height="792px"
   viewBox="0 0 792 792"
   style="enable-background:new 0 0 792 792;"
   xml:space="preserve"
   sodipodi:docname="number-5.svg"
   inkscape:version="0.92.1 r15371"><metadata
     id="metadata3773"><rdf:RDF><cc:Work
         rdf:about=""><dc:format>image/svg+xml</dc:format><dc:type
           rdf:resource="http://purl.org/dc/dcmitype/StillImage" /><dc:title></dc:title></cc:Work></rdf:RDF></metadata><defs
     id="defs3771" /><sodipodi:namedview
     pagecolor="#ffffff"
     bordercolor="#666666"
     borderopacity="1"
     objecttolerance="10"
     gridtolerance="10"
     guidetolerance="10"
     inkscape:pageopacity="0"
     inkscape:pageshadow="2"
     inkscape:window-width="1858"
     inkscape:window-height="1057"
     id="namedview3769"
     showgrid="false"
     showguides="true"
     inkscape:guide-bbox="true"
     inkscape:zoom="1.1212121"
     inkscape:cx="243.04054"
     inkscape:cy="431.67568"
     inkscape:window-x="-8"
     inkscape:window-y="-8"
     inkscape:window-maximized="1"
     inkscape:current-layer="g3733"><sodipodi:guide
       position="359.43243,719.75676"
       orientation="1,0"
       id="guide4646"
       inkscape:locked="false" /><sodipodi:guide
       position="-63.324324,338.91892"
       orientation="0,1"
       id="guide4648"
       inkscape:locked="false" /></sodipodi:namedview><g
     id="g3736"><g
       id="Pin_1_"><g
         id="g3733"><path
           d="m 115.98571,115.98571 c -115.97823539,115.97824 -115.96126482,304.06016 0,420.02143 41.9675,41.9675 93.36709,68.72583 147.37449,80.34642 l 355.86351,76.40926 c 19.82869,4.25254 41.37211,-1.33007 56.79058,-16.74853 15.41846,-15.41847 21.00107,-36.96189 16.73085,-56.80826 L 616.33659,263.34323 C 604.73297,209.3528 577.97464,157.95321 536.00714,115.98571 420.04587,0.02444518 231.98163,-0.01020306 115.98571,115.98571 Z M 543.74218,278.95474 616.16123,616.16123 278.971,543.75986 c -41.86214,-8.99581 -80.06641,-29.8392 -110.48261,-60.2554 -86.856751,-86.85675 -86.839781,-228.17628 0,-315.01607 86.83979,-86.839781 228.15932,-86.856751 315.01607,0 30.41691,30.41691 51.2603,68.62118 60.23772,110.46635 z"
           id="path3731"
           inkscape:connector-curvature="0"
           sodipodi:nodetypes="ssccsccsscccsssc"
           style="fill:#03a9f4;fill-opacity:1" /><path
           style="fill:#03a9f4;stroke-width:2"
           d="m 340.47741,282.65288 c -9.226,0 -18.79,1.734 -27.622,3.432 l 5.524,-36.65 h 69.26 c 6.632,0 25.78,-2.074 25.78,-25.942 0,-12.444 -9.958,-21.776 -26.89,-21.776 h -88.802 c -17.664,0 -25.424,5.882 -28.73,32.86 l -9.208,72.962 c -0.376,3.79 -1.108,7.258 -1.108,11.746 0,5.882 7.366,16.252 21.722,16.252 18.79,0 22.098,-11.406 43.48,-11.406 22.848,0 35.382,14.16 35.382,34.916 0,21.794 -13.266,45.286 -39.046,45.286 -24.69,0 -42.39,-22.116 -57.122,-22.116 -13.624,0 -25.03,10.728 -25.03,23.51 0,30.428 54.886,46.34 81.042,46.34 63.718,0 97.634,-38.046 97.634,-95.792 0.002,-40.44 -31.678,-73.622 -76.266,-73.622 z"
           id="path7478"
           inkscape:connector-curvature="0"
           sodipodi:nodetypes="sccssssccsssssssscs" /></g></g></g><g
     id="g3738" /><g
     id="g3740" /><g
     id="g3742" /><g
     id="g3744" /><g
     id="g3746" /><g
     id="g3748" /><g
     id="g3750" /><g
     id="g3752" /><g
     id="g3754" /><g
     id="g3756" /><g
     id="g3758" /><g
     id="g3760" /><g
     id="g3762" /><g
     id="g3764" /><g
     id="g3766" /></svg>