<?xml version="1.0" encoding="UTF-8" standalone="no"?>
<!-- Generator: Adobe Illustrator 16.0.0, SVG Export Plug-In . SVG Version: 6.00 Build 0)  -->

<svg
   xmlns:dc="http://purl.org/dc/elements/1.1/"
   xmlns:cc="http://creativecommons.org/ns#"
   xmlns:rdf="http://www.w3.org/1999/02/22-rdf-syntax-ns#"
   xmlns:svg="http://www.w3.org/2000/svg"
   xmlns="http://www.w3.org/2000/svg"
   xmlns:sodipodi="http://sodipodi.sourceforge.net/DTD/sodipodi-0.dtd"
   xmlns:inkscape="http://www.inkscape.org/namespaces/inkscape"
   version="1.1"
   id="Capa_1"
   x="0px"
   y="0px"
   width="792px"
   height="792px"
   viewBox="0 0 792 792"
   style="enable-background:new 0 0 792 792;"
   xml:space="preserve"
   sodipodi:docname="number-6.svg"
   inkscape:version="0.92.1 r15371"><metadata
     id="metadata3773"><rdf:RDF><cc:Work
         rdf:about=""><dc:format>image/svg+xml</dc:format><dc:type
           rdf:resource="http://purl.org/dc/dcmitype/StillImage" /><dc:title /></cc:Work></rdf:RDF></metadata><defs
     id="defs3771" /><sodipodi:namedview
     pagecolor="#ffffff"
     bordercolor="#666666"
     borderopacity="1"
     objecttolerance="10"
     gridtolerance="10"
     guidetolerance="10"
     inkscape:pageopacity="0"
     inkscape:pageshadow="2"
     inkscape:window-width="1858"
     inkscape:window-height="1057"
     id="namedview3769"
     showgrid="false"
     showguides="true"
     inkscape:guide-bbox="true"
     inkscape:zoom="1.1212121"
     inkscape:cx="243.04054"
     inkscape:cy="431.67568"
     inkscape:window-x="-8"
     inkscape:window-y="-8"
     inkscape:window-maximized="1"
     inkscape:current-layer="g3733"><sodipodi:guide
       position="-63.324324,338.91892"
       orientation="0,1"
       id="guide4648"
       inkscape:locked="false" /></sodipodi:namedview><g
     id="g3736"><g
       id="Pin_1_"><g
         id="g3733"><path
           d="m 607.15697,115.98665 c -115.97824,-115.9782378 -304.06016,-115.96126723 -420.02143,0 -41.9675,41.9675 -68.72583,93.36709 -80.34642,147.37449 L 30.379864,619.22465 c -4.25254,19.82869 1.33007,41.37211 16.74853,56.79058 15.41847,15.41846 36.96189,21.00107 56.808256,16.73085 l 355.8628,-76.40855 c 53.99043,-11.60362 105.39002,-38.36195 147.35752,-80.32945 115.96127,-115.96127 115.99592,-304.02551 0,-420.02143 z M 444.18794,543.74312 106.98145,616.16217 179.38282,278.97194 c 8.99581,-41.86214 29.8392,-80.06641 60.2554,-110.48261 86.85675,-86.856753 228.17628,-86.839783 315.01607,0 86.83978,86.83979 86.85675,228.15932 0,315.01607 -30.41691,30.41691 -68.62118,51.2603 -110.46635,60.23772 z"
           id="path3731"
           inkscape:connector-curvature="0"
           sodipodi:nodetypes="ssccsccsscccsssc"
           style="fill:#03a9f4;fill-opacity:1" /><path
           style="fill:#03a9f4;stroke-width:2"
           d="m 393.04509,293.28761 c -7.83,0 -16.02,1.358 -22.456,4.094 l -0.698,-0.698 c 11.746,-15.966 34.916,-37.688 49.166,-54.332 4.272,-5.096 7.474,-9.172 7.474,-13.91 0,-12.246 -15.304,-24.816 -25.28,-24.816 -2.86,0 -6.776,0 -10.692,2.396 -4.29,2.7 -8.564,5.436 -11.424,8.152 -35.99,31.912 -90.5,103.91 -90.5,155.22 0,45.16 34.576,84.224 89.446,84.224 52.742,0 89.446,-40.084 89.446,-84.224 0,-40.118 -31.698,-76.106 -74.482,-76.106 z m -14.964,111.4 c -21.382,0 -33.862,-16.306 -33.862,-35.328 0,-20.042 13.552,-35.346 33.862,-35.346 22.456,0 33.862,17.342 33.862,35.346 0,19.702 -13.552,35.328 -33.862,35.328 z"
           id="path8077"
           inkscape:connector-curvature="0"
           sodipodi:nodetypes="scccssccsssssssss" /></g></g></g><g
     id="g3738" /><g
     id="g3740" /><g
     id="g3742" /><g
     id="g3744" /><g
     id="g3746" /><g
     id="g3748" /><g
     id="g3750" /><g
     id="g3752" /><g
     id="g3754" /><g
     id="g3756" /><g
     id="g3758" /><g
     id="g3760" /><g
     id="g3762" /><g
     id="g3764" /><g
     id="g3766" /></svg>