<?xml version="1.0" encoding="UTF-8" standalone="no"?>
<!-- Generator: Adobe Illustrator 16.0.0, SVG Export Plug-In . SVG Version: 6.00 Build 0)  -->

<svg
   xmlns:dc="http://purl.org/dc/elements/1.1/"
   xmlns:cc="http://creativecommons.org/ns#"
   xmlns:rdf="http://www.w3.org/1999/02/22-rdf-syntax-ns#"
   xmlns:svg="http://www.w3.org/2000/svg"
   xmlns="http://www.w3.org/2000/svg"
   xmlns:sodipodi="http://sodipodi.sourceforge.net/DTD/sodipodi-0.dtd"
   xmlns:inkscape="http://www.inkscape.org/namespaces/inkscape"
   version="1.1"
   id="Capa_1"
   x="0px"
   y="0px"
   width="792px"
   height="792px"
   viewBox="0 0 792 792"
   style="enable-background:new 0 0 792 792;"
   xml:space="preserve"
   sodipodi:docname="number-3.svg"
   inkscape:version="0.92.1 r15371"><metadata
     id="metadata3773"><rdf:RDF><cc:Work
         rdf:about=""><dc:format>image/svg+xml</dc:format><dc:type
           rdf:resource="http://purl.org/dc/dcmitype/StillImage" /><dc:title></dc:title></cc:Work></rdf:RDF></metadata><defs
     id="defs3771" /><sodipodi:namedview
     pagecolor="#ffffff"
     bordercolor="#666666"
     borderopacity="1"
     objecttolerance="10"
     gridtolerance="10"
     guidetolerance="10"
     inkscape:pageopacity="0"
     inkscape:pageshadow="2"
     inkscape:window-width="1858"
     inkscape:window-height="1057"
     id="namedview3769"
     showgrid="false"
     showguides="true"
     inkscape:guide-bbox="true"
     inkscape:zoom="1.1212121"
     inkscape:cx="243.04054"
     inkscape:cy="396"
     inkscape:window-x="-8"
     inkscape:window-y="-8"
     inkscape:window-maximized="1"
     inkscape:current-layer="g3733"><sodipodi:guide
       position="359.43243,719.75676"
       orientation="1,0"
       id="guide4646"
       inkscape:locked="false" /><sodipodi:guide
       position="-63.324324,338.91892"
       orientation="0,1"
       id="guide4648"
       inkscape:locked="false" /></sodipodi:namedview><g
     id="g3736"><g
       id="Pin_1_"><g
         id="g3733"><path
           d="m 115.98571,115.98571 c -115.97823539,115.97824 -115.96126482,304.06016 0,420.02143 41.9675,41.9675 93.36709,68.72583 147.37449,80.34642 l 355.86351,76.40926 c 19.82869,4.25254 41.37211,-1.33007 56.79058,-16.74853 15.41846,-15.41847 21.00107,-36.96189 16.73085,-56.80826 L 616.33659,263.34323 C 604.73297,209.3528 577.97464,157.95321 536.00714,115.98571 420.04587,0.02444518 231.98163,-0.01020306 115.98571,115.98571 Z M 543.74218,278.95474 616.16123,616.16123 278.971,543.75986 c -41.86214,-8.99581 -80.06641,-29.8392 -110.48261,-60.2554 -86.856751,-86.85675 -86.839781,-228.17628 0,-315.01607 86.83979,-86.839781 228.15932,-86.856751 315.01607,0 30.41691,30.41691 51.2603,68.62118 60.23772,110.46635 z"
           id="path3731"
           inkscape:connector-curvature="0"
           sodipodi:nodetypes="ssccsccsscccsssc"
           style="fill:#03a9f4;fill-opacity:1" /><path
           style="fill:#03a9f4;stroke-width:2"
           d="m 366.85641,316.62448 c 17.932,-11.872 26.728,-30.554 26.728,-51.954 0,-26.478 -22.508,-62.164 -69.458,-62.164 -36.186,0 -71.084,28.552 -71.084,55.03 0,12.568 7.83,25.12 21.204,25.12 22.17,0 17.932,-33.272 48.898,-33.272 14.678,0 23.474,9.85 23.474,22.742 0,37.706 -46.304,13.588 -46.304,49.254 0,40.066 55.44,5.096 55.44,52.634 0,18.004 -13.712,31.592 -30.662,31.592 -36.848,0 -31.626,-39.744 -53.796,-39.744 -11.746,0 -25.102,9.512 -25.102,22.76 0,26.836 30,63.844 78.254,63.844 46.304,0 82.168,-34.308 82.168,-75.054 0.002,-26.82 -16.304,-49.562 -39.76,-60.788 z"
           id="path6280"
           inkscape:connector-curvature="0"
           sodipodi:nodetypes="csssssssssssscc" /></g></g></g><g
     id="g3738" /><g
     id="g3740" /><g
     id="g3742" /><g
     id="g3744" /><g
     id="g3746" /><g
     id="g3748" /><g
     id="g3750" /><g
     id="g3752" /><g
     id="g3754" /><g
     id="g3756" /><g
     id="g3758" /><g
     id="g3760" /><g
     id="g3762" /><g
     id="g3764" /><g
     id="g3766" /></svg>