<?xml version="1.0" encoding="UTF-8" standalone="no"?>
<!-- Generator: Adobe Illustrator 16.0.0, SVG Export Plug-In . SVG Version: 6.00 Build 0)  -->

<svg
   xmlns:dc="http://purl.org/dc/elements/1.1/"
   xmlns:cc="http://creativecommons.org/ns#"
   xmlns:rdf="http://www.w3.org/1999/02/22-rdf-syntax-ns#"
   xmlns:svg="http://www.w3.org/2000/svg"
   xmlns="http://www.w3.org/2000/svg"
   xmlns:sodipodi="http://sodipodi.sourceforge.net/DTD/sodipodi-0.dtd"
   xmlns:inkscape="http://www.inkscape.org/namespaces/inkscape"
   version="1.1"
   id="Capa_1"
   x="0px"
   y="0px"
   width="94px"
   height="94px"
   viewBox="0 0 94 94"
   style="enable-background:new 0 0 94 94;"
   xml:space="preserve"
   sodipodi:docname="promotion-reason-3.svg"
   inkscape:version="0.92.1 r15371"><metadata
     id="metadata4544"><rdf:RDF><cc:Work
         rdf:about=""><dc:format>image/svg+xml</dc:format><dc:type
           rdf:resource="http://purl.org/dc/dcmitype/StillImage" /></cc:Work></rdf:RDF></metadata><defs
     id="defs4542" /><sodipodi:namedview
     pagecolor="#ffffff"
     bordercolor="#666666"
     borderopacity="1"
     objecttolerance="10"
     gridtolerance="10"
     guidetolerance="10"
     inkscape:pageopacity="0"
     inkscape:pageshadow="2"
     inkscape:window-width="1858"
     inkscape:window-height="1057"
     id="namedview4540"
     showgrid="false"
     showguides="true"
     inkscape:guide-bbox="true"
     inkscape:zoom="2.52"
     inkscape:cx="115.05556"
     inkscape:cy="47"
     inkscape:window-x="-8"
     inkscape:window-y="-8"
     inkscape:window-maximized="1"
     inkscape:current-layer="Capa_1"><sodipodi:guide
       position="0,137.69841"
       orientation="1,0"
       id="guide4548"
       inkscape:locked="false" /><sodipodi:guide
       position="21.031746,169.04762"
       orientation="1,0"
       id="guide4550"
       inkscape:locked="false" /><sodipodi:guide
       position="94.444444,157.14286"
       orientation="1,0"
       id="guide4552"
       inkscape:locked="false" /><sodipodi:guide
       position="73.015873,172.22222"
       orientation="1,0"
       id="guide4554"
       inkscape:locked="false" /><sodipodi:guide
       position="-31.349206,94.047619"
       orientation="0,1"
       id="guide4556"
       inkscape:locked="false" /><sodipodi:guide
       position="-38.492063,73.015873"
       orientation="0,1"
       id="guide4558"
       inkscape:locked="false" /><sodipodi:guide
       position="-13.492063,0"
       orientation="0,1"
       id="guide4560"
       inkscape:locked="false" /><sodipodi:guide
       position="-9.9206349,21.031746"
       orientation="0,1"
       id="guide4562"
       inkscape:locked="false" /></sodipodi:namedview><g
     id="g4507"><g
       id="g4505"><path
         style="fill:#03a9f4;"
         d="M30.016,24.18c1.116,0.625,1.569,1.067,2.581,0.417c0.242-0.155,0.441-0.666,0.37-0.937    c-0.073-0.277,2.336-2.537,2.113-2.494c-0.73,0.14-0.287-6.179-1.055-5.908c-1.055,3.798-5.904,6.525-6.224,6.79    c0.331,0.042,0.009,0.281,0.399,0.329c-0.34,0.251-1,2.611-1.033,2.635C27.266,25.347,29.917,23.841,30.016,24.18z"
         id="path4485" /><path
         style="fill:#03a9f4;"
         d="M30.078,20.222c-0.019-0.101-0.038-0.202-0.057-0.303c-0.367-0.049-0.734-0.099-1.057-0.144    c0.18-0.262,0.388-0.565,0.505-0.735c0.395,0.087,0.811,0.179,1.226,0.271c-0.214-0.644-0.427-1.288-0.671-2.021    c0.024-0.018,0.296-0.211,0.648-0.46c0.274-0.022,0.729-0.061,1.467-0.122c-0.377-0.315-0.51-0.425-0.637-0.531    c0.309-0.085,0.622-0.17,0.667-0.183c0.213-0.462,0.403-0.701,0.415-0.947c0.016-0.33-0.108-0.667-0.21-1.201    c0.247-0.055,0.665-0.149,1.012-0.226c-0.022-0.543,7.333-4.5,7.498-4.902c-10.55,2.215-19.707,10.417-20.216,10.875    c0.027,0.021,0.053,0.042,0.08,0.063l-1.494,1.637c0.102,0.093,0.204,0.185,0.305,0.277c0.189-0.221,0.378-0.441,0.67-0.781    c0.041,0.225,0.167,0.473,0.093,0.574c-0.336,0.456-0.796,0.83-1.083,1.31c-0.328,0.549-0.61,1.16-0.744,1.78    c-0.141,0.652-0.121,1.347-0.107,2.022c0.028,1.372,0.142,1.501,1.634,2.222c0.706-1.239,1.336-2.526,2.146-3.688    c0.378-0.543,1.095-0.857,1.676-1.248c0.396-0.266,0.941-0.393,1.213-0.742c0.614-0.789,1.374-1.192,2.314-1.489    C28.317,21.231,29.179,20.669,30.078,20.222z"
         id="path4487" /><path
         style="fill:#03a9f4;"
         d="M37.148,37.245c1.108,0.084,1.561-0.456,1.642-1.226c-0.799-1.098-1.497-2.055-2.229-3.062    c0.14-0.279,0.334-0.666,0.572-1.138c-0.433-0.029-0.722-0.048-1.054-0.07c0.144-0.256,0.24-0.426,0.337-0.597    c-0.071-0.076-0.142-0.151-0.213-0.227c-0.278,0.2-0.646,0.344-0.819,0.612c-0.516,0.792-0.172,2.016,0.603,2.617    c0.246,0.19,0.366,0.542,0.413,0.615c-0.4,0.674-0.686,1.152-0.983,1.652c0.192,0.101,0.365,0.191,0.54,0.283    c-0.175,0.255-0.333,0.483-0.562,0.817C36.077,37.406,36.622,37.204,37.148,37.245z"
         id="path4489" /><path
         style="fill:#03a9f4;"
         d="M11.692,54.848c-0.083-0.093-0.249-0.113-0.377-0.168c0.504-0.938,0.045-2.609-0.896-3.607    c-0.342-0.362-0.554-0.854-0.799-1.301c-0.458-0.832-0.857-1.703-1.329-2.521c0.273,6.154,2.184,12.084,5.434,17.197    c0.124,0.027,0.211,0.047,0.294,0.08c0.156,0.062,0.301,0.149,0.54,0.272c0.128-0.39,0.341-0.717,0.321-1.03    c-0.066-1.019,0.185-1.768,1.154-2.319c0.232-0.132,0.268-1.179,0.012-1.505C14.662,58.191,13.161,56.532,11.692,54.848z"
         id="path4491" /><path
         style="fill:#03a9f4;"
         d="M13.707,36.25c-0.362,0.736-0.63,1.282-1.02,2.075c0.764-0.143,1.607-0.056,1.84-0.392    C15.111,37.088,13.844,37.029,13.707,36.25z"
         id="path4493" /><path
         style="fill:#03a9f4;"
         d="M34.536,36.006c0.368-0.484,0.362-1.256,0.497-1.907c0.012-0.061-0.149-0.229-0.183-0.217    c-0.538,0.197-1.082,0.385-1.589,0.645c-0.158,0.081-0.275,0.358-0.297,0.557c-0.044,0.412-0.013,0.832-0.013,1.249    c-0.01,0.12-0.019,0.24-0.029,0.359C33.477,36.477,34.229,36.411,34.536,36.006z"
         id="path4495" /><path
         style="fill:#03a9f4;"
         d="M9.345,41.524c0.36-0.614,0.77-1.209,1.127-1.825c0.093,0.04,0.186,0.08,0.279,0.119c-0.042,0.29-0.083,0.581-0.136,0.953    c0.475-0.389,0.859-0.705,1.306-1.071c-1.083-0.541-0.783-1.39-0.437-2.314c-0.357,0.042-0.611,0.073-0.864,0.104    c0.231-0.792,0.795-0.865,1.543-1.021c0.793-0.163,1.664-0.734,2.145-1.388c0.412-0.562-0.011-1.356-0.521-1.977    c-0.25-0.305-0.25-0.854-0.275-1.296c-0.022-0.39-0.023-0.781-0.02-1.19c1.015-1.96,2.146-3.909,3.375-5.893    c0.862-1.391,1.767-2.756,2.701-4.1C14.009,26.081,10.268,33.38,9.345,41.524z"
         id="path4497" /><path
         style="fill:#03a9f4;"
         d="M58.484,79.156c1.476-0.232,3.875-3.061,3.926-4.602C60.898,75.986,58.828,76.798,58.484,79.156z"
         id="path4499" /><path
         style="fill:#03a9f4;"
         d="M53.648,9.034c-0.064,0.068,4.129,5.416,2.863,5.275c-0.998-0.111-1.556,1.635-1.998,2.605    c-0.434-0.277-0.271-0.173-0.005,0.008c-0.116,0.254-0.194,0.435-0.22,0.481c-0.239-0.089-0.12,0.158,0.118,0.269    c-0.412,0.172-1.243,0.149-1.108,0.576c-0.779,0.079,0.085,1.923,1.118,3.8c-0.551-0.337-1.14-0.603-1.89-0.538    c-0.525,0.045-1.09-0.359-1.67-0.57c0.086-0.106,0.201-0.249,0.395-0.488c-1.413-0.369-2.658-0.475-3.906,0.435    c-0.743,0.541-1.676,0.818-2.561,1.231c0.14,0.05,0.35,0.125,0.523,0.187c-0.407,0.681-0.77,1.428-1.262,2.077    c-0.82,1.083-1.611,2.232-2.629,3.104c-0.743,0.637-1.221,1.057-0.651,2.024c0.147,0.249,0.206,0.684,0.087,0.929    c-0.265,0.549-0.004,0.826,0.426,0.874c0.353,0.04,0.762-0.124,1.096-0.295c0.317-0.162,0.57-0.452,0.921-0.745    c0.482,1.133,0.902,2.124,1.327,3.124c1.28-0.159,1.519-0.445,1.669-1.678c0.052-0.419,0.442-0.786,0.559-1.209    c0.1-0.363,0.193-0.912,0.003-1.134c-0.739-0.863-0.755-1.738,0.153-2.466c0.532-0.425,0.979-0.773,0.925-1.606    c-0.051-0.775,0.743-0.888,1.822-0.245c-0.296,0.415-0.51,0.943-0.9,1.219c-0.971,0.683-0.742,1.594-0.463,2.4    c0.213,0.618,0.811,1.034,1.602,0.85c0.508-0.118,1.019-0.248,1.535-0.282c0.295-0.02,0.603,0.14,0.904,0.218    c-0.002,0.12-0.006,0.24-0.008,0.359c-0.474,0.084-0.949,0.247-1.422,0.239c-1.125-0.017-1.281,0.183-0.887,1.23    c0.09,0.241,0.037,0.536,0.057,0.96c-0.402-0.226-0.675-0.379-1.113-0.625c-0.134,0.438-0.338,0.805-0.341,1.173    c-0.008,0.914,0.03,0.914-0.771,1.513c-0.026-0.097-0.053-0.194-0.077-0.291c-0.532,0.109-1.068,0.198-1.594,0.332    c-0.496,0.126-0.924,0.798-1.518,0.11c-0.095-0.109-0.521,0.124-0.771,0.079c-0.342-0.061-0.735-0.163-0.965-0.39    c-0.142-0.141-0.049-0.549-0.016-0.832c0.055-0.467,0.148-0.932,0.122-1.422c-0.652,0.562-1.275,1.092-0.79,2.101    c0.279,0.58,0.403,1.058-0.634,1.076c-0.698,0.012-1.416,0.332-1.738,1.247c-0.413,1.174-1.866,2.019-2.807,1.865    c0.208,1.414-1.451-0.015-1.505,0.903c0.517,0.481,1.017,0.896,1.446,1.373c0.175,0.196,0.281,0.532,0.274,0.8    c-0.036,1.39-0.052,1.369-1.436,1.334c-0.927-0.023-1.855,0.021-2.671,0.033c-0.075,1.705-0.137,3.098-0.189,4.28    c0.774,0.342,1.307,0.577,1.84,0.813c0.505-0.086,1.077-0.16,1.638-0.287c0.83-0.188,1.216-0.766,1.451-1.563    c0.161-0.546,0.521-1.04,0.826-1.536c0.232-0.376,0.496-0.739,0.788-1.069c0.208-0.234,0.593-0.623,0.719-0.563    c0.815,0.388,1.354-0.089,1.992-0.429c0.279-0.149,0.96-0.13,1.036,0.022c0.62,1.245,1.827,1.773,2.838,2.554    c0.358,0.276,0.509,0.819,0.754,1.24c-0.456,0.175-0.909,0.36-1.372,0.518c-0.147,0.051-0.32,0.026-0.553,0.263    c0.435,0.219,0.869,0.438,1.208,0.608c0.292-0.326,0.545-0.552,0.727-0.825c0.204-0.309,0.57-0.761,0.473-0.975    c-0.562-1.251,0.298-0.664,0.935-0.603c-0.345-0.281-0.567-0.46-0.79-0.642c-0.889-0.733-1.808-1.435-2.646-2.223    c-0.191-0.18-0.104-0.656-0.145-0.997c0.216,0.091,0.451,0.153,0.644,0.28c0.975,0.643,1.95,1.286,2.896,1.97    c0.2,0.145,0.288,0.457,0.406,0.703c0.262,0.539,0.504,1.089,0.767,1.628c0.188,0.388,0.406,0.76,0.594,1.148    c0.133,0.272,0.232,0.558,0.364,0.877c0.523-0.728,0.767-1.066,0.985-1.37c-0.305-0.432-0.625-0.886-1.059-1.5    c0.381,0,0.574,0.058,0.705-0.01c1.362-0.704,1.82-0.456,1.904,1.056c0.075,1.349,1.035,1.954,2.299,1.45    c0.063-0.025,0.158-0.085,0.188-0.063c0.815,0.63,1.647,0.253,2.478-0.092c0.096,0.067,0.19,0.136,0.285,0.203    c-0.212,0.946-0.391,1.901-0.656,2.833c-0.072,0.249-0.404,0.596-0.625,0.604c-1.968,0.058-3.966,0.321-5.822-0.668    c-1.037-0.554-1.529-0.246-1.707,0.937c-0.032,0.224-0.459,0.608-0.553,0.567c-0.734-0.32-1.424-0.738-2.142-1.1    c-0.412-0.207-0.842-0.387-1.277-0.54c-0.602-0.211-1.216-0.387-1.557-0.494c0-0.794,0.07-1.315-0.03-1.802    c-0.051-0.244-0.467-0.639-0.625-0.6c-2.016,0.515-4.233-0.079-6.135,1.255c-0.482,0.338-1.485-0.07-2.105-0.122    c-0.525,0.484-1.098,0.917-1.542,1.456c-0.353,0.429-0.541,0.991-0.815,1.487c-0.3,0.545-0.482,1.336-0.947,1.58    c-1.565,0.818-2.484,2.291-2.722,3.735c-0.208,1.258,0.329,2.663-0.091,4.072c-0.122,0.407,0.627,1.095,1.014,1.627    c0.461,0.635,1.006,1.212,1.437,1.866c0.648,0.982,2.719,1.969,3.851,1.799c0.448-0.066,0.912-0.018,1.367-0.055    c0.707-0.055,1.423-0.082,2.114-0.221c1.016-0.203,2.051-0.762,2.746,0.605c0.09,0.177,0.634,0.201,0.955,0.17    c1.226-0.124,1.637,0.238,1.244,1.367c-0.406,1.166,0.01,1.803,0.832,2.646c0.706,0.725,0.914,1.95,1.273,2.977    c0.051,0.146-0.264,0.447-0.445,0.645c-0.822,0.896-0.841,1.471-0.177,2.455c0.302,0.447,0.447,0.999,0.712,1.477    c0.444,0.801,0.905,1.596,1.416,2.355c0.089,0.132,5.139,4.018,7.599-0.485c0.437-0.8-0.153-2.305,0.565-2.868    c0.103-0.08,0.216-0.242,0.203-0.354c-0.133-1.31,0.979-1.575,1.771-2.024c1.649-0.938,1.858-1.328,1.515-3.217    c-0.194-1.064,0.201-1.977,0.972-2.693c0.999-0.933,2.046-1.812,3.063-2.724c1.381-1.237,2.279-2.769,2.914-4.681    c-1.055,0.337-1.932,0.545-2.746,0.898c-0.662,0.289-0.888,0.059-1.055-0.527c-0.072-0.256-0.199-0.584-0.4-0.697    c-1.119-0.623-1.453-1.867-2.252-2.737c-0.047-0.051-0.093-0.108-0.119-0.171c-0.683-1.667-1.362-3.335-2.056-5.031    c0.447-0.527,0.853-0.281,1.074,0.237c0.51,1.19,1.78,1.943,1.851,3.416c0.02,0.416,0.686,0.763,0.896,1.215    c0.489,1.054,0.884,2.153,1.415,3.48c1.316-0.787,2.669-1.579,4.003-2.398c0.489-0.301,1.005-0.606,1.39-1.02    c0.611-0.658,1.188-1.372,1.641-2.144c0.151-0.259,0-0.848-0.215-1.137c-0.293-0.395-0.777-0.648-1.158-0.947    c-0.422,0.299-1.022,0.725-1.577,1.117c-0.587-0.869-1.007-1.493-1.427-2.115c-0.135-0.199-0.351-0.387-0.383-0.601    c-0.045-0.294,0.049-0.61,0.084-0.917c0.299,0.148,0.726,0.219,0.877,0.46c0.773,1.221,1.459,1.542,2.748,1.161    c0.409,0.818,4.422,2.964,5.688,5.285c0.953,1.646,3.339-3.508,3.367-4.924c0.062-3.023,1.062-3.871,2.673-1.125    c0.687,1.17-0.244,7.418,0.175,9.426c4.846-3.502,4.854-11.747,4.854-16.563C85.193,35.797,78.02,15.997,53.648,9.034z     M57.604,44.215c-0.604-0.005-1.244-0.096-1.803-0.318c-0.874-0.347-1.613-0.339-2.48,0.111c-0.455,0.237-1.252,0.194-1.717-0.055    c-0.572-0.308-0.511-0.922-0.113-1.537c0.449-0.694,0.725-1.5,1.105-2.318c0.592,0.281,1.045,0.374,1.293,0.651    c0.215,0.244,0.201,0.694,0.301,1.106c0.346-0.178,0.561-0.289,0.857-0.442c-0.252-0.27-0.472-0.504-0.775-0.829    c0.75-0.309,1.422-0.586,2.305-0.949c-0.221,0.725-0.381,1.251-0.542,1.783c0.634,0.435,1.292,0.823,1.868,1.308    c0.281,0.238,0.408,0.658,0.605,0.995C58.206,43.896,57.902,44.217,57.604,44.215z M62.709,45.96    c-0.23-0.229-0.066-0.847-0.107-1.286c-0.021-0.232-0.057-0.48-0.16-0.683c-0.271-0.532-0.607-1.031-0.877-1.565    c-0.448-0.893,0.264-1.952,1.302-1.96c0.141-0.001,0.28,0.032,0.698,0.083c-0.174,0.339-0.246,0.625-0.428,0.797    c-0.357,0.341-0.504,0.686-0.174,1.091c0.896,1.102,1.23,2.436,1.622,3.763C63.875,46.66,63.188,46.434,62.709,45.96z"
         id="path4501" /><path
         style="fill:#03a9f4"
         d="M 73.126984,0 H 20.47619 C 10.175508,0 0,10.572333 0,20.873016 v 53.047619 c 0,9.506843 10.969643,20.947657 20.873016,20.873016 L 73.52381,94.396825 c 10.301263,-0.07764 20.873016,-9.382132 20.873016,-21.269841 l -10e-7,-52.253968 C 94.396825,10.376729 83.750498,0 73.126984,0 Z M 47,87.516 C 24.66,87.516 6.485,69.34 6.485,47 6.485,24.66 24.66,6.485 47,6.485 69.34,6.485 87.516,24.66 87.516,47 87.516,69.34 69.34,87.516 47,87.516 Z"
         id="path4503"
         inkscape:connector-curvature="0"
         sodipodi:nodetypes="ssssssssssssss" /></g></g><g
     id="g4509" /><g
     id="g4511" /><g
     id="g4513" /><g
     id="g4515" /><g
     id="g4517" /><g
     id="g4519" /><g
     id="g4521" /><g
     id="g4523" /><g
     id="g4525" /><g
     id="g4527" /><g
     id="g4529" /><g
     id="g4531" /><g
     id="g4533" /><g
     id="g4535" /><g
     id="g4537" /></svg>