<?xml version="1.0" encoding="UTF-8" standalone="no"?>
<!-- Generator: Adobe Illustrator 16.0.0, SVG Export Plug-In . SVG Version: 6.00 Build 0)  -->

<svg
   xmlns:dc="http://purl.org/dc/elements/1.1/"
   xmlns:cc="http://creativecommons.org/ns#"
   xmlns:rdf="http://www.w3.org/1999/02/22-rdf-syntax-ns#"
   xmlns:svg="http://www.w3.org/2000/svg"
   xmlns="http://www.w3.org/2000/svg"
   xmlns:sodipodi="http://sodipodi.sourceforge.net/DTD/sodipodi-0.dtd"
   xmlns:inkscape="http://www.inkscape.org/namespaces/inkscape"
   version="1.1"
   id="Capa_1"
   x="0px"
   y="0px"
   width="94px"
   height="94px"
   viewBox="0 0 94 94"
   style="enable-background:new 0 0 94 94;"
   xml:space="preserve"
   sodipodi:docname="sales-reason-1.svg"
   inkscape:version="0.92.1 r15371"><metadata
     id="metadata5183"><rdf:RDF><cc:Work
         rdf:about=""><dc:format>image/svg+xml</dc:format><dc:type
           rdf:resource="http://purl.org/dc/dcmitype/StillImage" /></cc:Work></rdf:RDF></metadata><defs
     id="defs5181" /><sodipodi:namedview
     pagecolor="#ffffff"
     bordercolor="#666666"
     borderopacity="1"
     objecttolerance="10"
     gridtolerance="10"
     guidetolerance="10"
     inkscape:pageopacity="0"
     inkscape:pageshadow="2"
     inkscape:window-width="974"
     inkscape:window-height="1020"
     id="namedview5179"
     showgrid="false"
     showguides="true"
     inkscape:guide-bbox="true"
     inkscape:zoom="2.5106383"
     inkscape:cx="115.30932"
     inkscape:cy="47"
     inkscape:window-x="0"
     inkscape:window-y="0"
     inkscape:window-maximized="0"
     inkscape:current-layer="Capa_1"><sodipodi:guide
       position="-0.39830508,165.29661"
       orientation="1,0"
       id="guide5728"
       inkscape:locked="false" /><sodipodi:guide
       position="21.110169,146.57627"
       orientation="1,0"
       id="guide5730"
       inkscape:locked="false" /><sodipodi:guide
       position="94.398305,134.22881"
       orientation="1,0"
       id="guide5732"
       inkscape:locked="false" /><sodipodi:guide
       position="73.288136,148.16949"
       orientation="1,0"
       id="guide5734"
       inkscape:locked="false" /><sodipodi:guide
       position="-12.347458,94"
       orientation="0,1"
       id="guide5736"
       inkscape:locked="false" /><sodipodi:guide
       position="-23.5,73.288136"
       orientation="0,1"
       id="guide5738"
       inkscape:locked="false" /><sodipodi:guide
       position="-9.9576271,0"
       orientation="0,1"
       id="guide5740"
       inkscape:locked="false" /><sodipodi:guide
       position="7.5677966,21.110169"
       orientation="0,1"
       id="guide5742"
       inkscape:locked="false" /></sodipodi:namedview><g
     id="g5146"><path
       style="fill:#03a9f4"
       d="M 73.466102,-0.39830508 20.932203,0.39830508 C 10.203141,0.56099776 0.08133671,9.8061049 0,20.533898 L -0.39830508,73.067797 C -0.47344035,82.977659 10.198614,93.922229 20.533898,94 l 52.932204,0.398305 C 83.793161,94.476014 94.320579,83.795392 94.398305,73.466102 L 94.79661,20.533898 C 94.877366,9.8020056 84.167901,-0.56058434 73.466102,-0.39830508 Z M 83.003,68.08 c -3.845,0 -6.961,-3.116 -6.961,-6.959 0,-0.747 0.12,-1.465 0.338,-2.141 L 61.227,51.711 c -0.767,0.957 -1.934,1.581 -3.256,1.581 -1.002,0 -1.908,-0.367 -2.63,-0.955 l -6.583,5.78 c 0.518,0.883 0.812,1.907 0.812,3.002 0,3.305 -2.683,5.985 -5.986,5.985 -3.306,0 -5.986,-2.682 -5.986,-5.985 0,-3.306 2.681,-5.985 5.986,-5.985 1.56,0 2.979,0.604 4.045,1.584 L 49.427,55.14 41.89,50.327 c -0.81,0.918 -1.981,1.508 -3.3,1.508 -2.438,0 -4.415,-1.976 -4.415,-4.414 0,-2.438 1.978,-4.415 4.415,-4.415 1.206,0 2.296,0.487 3.093,1.27 l 6.999,-4.855 c -0.06,-0.268 -0.104,-0.542 -0.104,-0.826 0,-0.275 0.037,-0.539 0.093,-0.795 l -4.699,-1.06 c -0.536,0.695 -1.369,1.152 -2.314,1.152 -0.802,0 -1.529,-0.324 -2.058,-0.847 l -7.378,3.675 c 0.026,0.174 0.054,0.349 0.054,0.528 0,1.941 -1.574,3.517 -3.519,3.517 -0.989,0 -1.876,-0.41 -2.514,-1.065 l -12.289,6.118 c 0.095,0.385 0.151,0.783 0.151,1.195 0,2.778 -2.255,5.03 -5.035,5.03 -2.78,0 -5.031,-2.252 -5.031,-5.03 0,-2.779 2.251,-5.032 5.031,-5.032 1.727,0 3.247,0.87 4.156,2.194 l 12.141,-6.049 c -0.074,-0.281 -0.128,-0.572 -0.128,-0.879 0,-1.94 1.577,-3.517 3.518,-3.517 1.115,0 2.1,0.53 2.743,1.342 l 7.277,-3.624 c -0.015,-0.102 -0.021,-0.204 -0.03,-0.309 l -2.153,-0.86 c -0.513,0.623 -1.279,1.031 -2.149,1.031 -1.538,0 -2.785,-1.251 -2.785,-2.788 0,-0.07 0.016,-0.137 0.02,-0.207 l -1.058,-0.423 c -0.445,0.54 -1.111,0.892 -1.864,0.892 -1.336,0 -2.421,-1.085 -2.421,-2.422 0,-1.338 1.085,-2.423 2.421,-2.423 1.274,0 2.311,0.987 2.405,2.236 l 1.221,0.488 c 0.511,-0.566 1.243,-0.929 2.062,-0.929 1.542,0 2.789,1.249 2.789,2.787 0,0.026 -0.007,0.051 -0.009,0.075 l 1.975,0.788 c 0.52,-0.809 1.424,-1.35 2.458,-1.35 0.837,0 1.589,0.355 2.121,0.921 l 4.539,-2.26 c -0.006,-0.056 -0.021,-0.11 -0.021,-0.167 0,-1.539 1.249,-2.787 2.789,-2.787 1.537,0 2.789,1.248 2.789,2.787 0,1.537 -1.252,2.785 -2.789,2.785 -0.836,0 -1.573,-0.372 -2.087,-0.952 l -4.452,2.218 c 0.016,0.126 0.037,0.25 0.037,0.384 0,0.023 -0.007,0.046 -0.007,0.068 l 4.96,1.119 c 0.665,-0.726 1.61,-1.188 2.67,-1.188 0.823,0 1.575,0.283 2.183,0.746 l 3.676,-2.348 c -0.053,-0.226 -0.092,-0.458 -0.092,-0.7 0,-1.617 1.312,-2.928 2.926,-2.928 0.697,0 1.326,0.252 1.826,0.656 l 2.567,-1.637 c -0.009,-0.082 -0.022,-0.162 -0.022,-0.244 0,-1.431 1.158,-2.592 2.588,-2.592 1.431,0 2.592,1.161 2.592,2.592 0,1.43 -1.161,2.589 -2.592,2.589 -0.688,0 -1.315,-0.274 -1.778,-0.717 l -2.367,1.51 c 0.032,0.121 0.06,0.244 0.076,0.37 l 8.239,1.824 -0.385,1.753 -8.17,-1.808 c -0.492,0.923 -1.453,1.557 -2.574,1.557 -0.719,0 -1.371,-0.27 -1.881,-0.701 l -3.5,2.231 c 0.201,0.451 0.317,0.946 0.317,1.474 0,2.002 -1.623,3.627 -3.629,3.627 -1.067,0 -2.019,-0.469 -2.683,-1.202 l -6.845,4.753 c 0.205,0.511 0.323,1.066 0.323,1.649 0,0.472 -0.093,0.915 -0.227,1.342 l 8.055,5.146 3.388,-2.973 c -0.271,-0.557 -0.437,-1.171 -0.437,-1.83 0,-2.313 1.876,-4.19 4.188,-4.19 2.314,0 4.19,1.877 4.19,4.19 0,0.348 -0.056,0.681 -0.132,1.002 l 15.121,7.254 c 1.24,-1.924 3.396,-3.198 5.852,-3.198 3.842,0 6.958,3.116 6.958,6.959 0,3.843 -3.113,6.962 -6.956,6.962 z"
       id="path5144"
       inkscape:connector-curvature="0"
       sodipodi:nodetypes="sssssssssssccsccsssscccsssccsccsccssccssssccssccccssccsssccssccsccssssccsccsccssccssssccccccsccssccscccsssccsss" /></g><g
     id="g5148" /><g
     id="g5150" /><g
     id="g5152" /><g
     id="g5154" /><g
     id="g5156" /><g
     id="g5158" /><g
     id="g5160" /><g
     id="g5162" /><g
     id="g5164" /><g
     id="g5166" /><g
     id="g5168" /><g
     id="g5170" /><g
     id="g5172" /><g
     id="g5174" /><g
     id="g5176" /></svg>