<?xml version="1.0" encoding="iso-8859-1"?>
<!-- Generator: Adobe Illustrator 16.0.0, SVG Export Plug-In . SVG Version: 6.00 Build 0)  -->
<!DOCTYPE svg PUBLIC "-//W3C//DTD SVG 1.1//EN" "http://www.w3.org/Graphics/SVG/1.1/DTD/svg11.dtd">
<svg version="1.1" id="Capa_1" xmlns="http://www.w3.org/2000/svg" xmlns:xlink="http://www.w3.org/1999/xlink" x="0px" y="0px"
	 width="106.048px" height="106.048px" viewBox="0 0 106.048 106.048" style="enable-background:new 0 0 106.048 106.048;"
	 xml:space="preserve">
<g>
	<path style="fill:#03a9f4" d="M44.382,30.367c1.225-1.416,2.879-2.428,4.952-3.021v15.381c-2.286-0.829-3.989-1.908-5.113-3.268
		c-1.129-1.346-1.691-2.809-1.691-4.378C42.53,33.357,43.152,31.788,44.382,30.367z M56.98,57.321v17.331
		c2.635-0.408,4.773-1.444,6.426-3.086c1.651-1.651,2.475-3.578,2.475-5.805c0-1.978-0.693-3.702-2.076-5.137
		C62.417,59.186,60.139,58.078,56.98,57.321z M106.048,21.209v63.629c0,11.666-9.543,21.21-21.21,21.21H21.209
		C9.543,106.048,0,96.504,0,84.838V21.209C0,9.543,9.543,0,21.209,0h63.628C96.505,0,106.048,9.543,106.048,21.209z M78.801,64.156
		c0-4.795-1.522-8.73-4.583-11.801c-3.055-3.076-8.803-5.571-17.237-7.498V27.482c3.406,1.24,5.52,3.612,6.327,7.109l13.339-1.468
		c-0.916-4.442-3.029-7.99-6.328-10.641c-3.303-2.657-7.751-4.27-13.338-4.821v-4.406h-7.646v4.401
		c-6.045,0.497-10.887,2.402-14.524,5.706c-3.643,3.301-5.455,7.384-5.455,12.251c0,4.8,1.605,8.883,4.818,12.254
		c3.218,3.363,8.272,5.869,15.161,7.536v18.621c-1.9-0.767-3.622-2.004-5.165-3.729c-1.548-1.719-2.605-3.77-3.172-6.142
		L27.245,65.41c1.054,5.841,3.477,10.351,7.268,13.556c3.803,3.2,8.733,5.116,14.817,5.737v8.089h7.646v-8.316
		c6.851-0.829,12.205-3.075,16.047-6.758C76.88,74.047,78.801,69.521,78.801,64.156z"/>
</g>
<g>
</g>
<g>
</g>
<g>
</g>
<g>
</g>
<g>
</g>
<g>
</g>
<g>
</g>
<g>
</g>
<g>
</g>
<g>
</g>
<g>
</g>
<g>
</g>
<g>
</g>
<g>
</g>
<g>
</g>
</svg>
