<?xml version="1.0" encoding="iso-8859-1"?>
<!-- Generator: Adobe Illustrator 16.0.0, SVG Export Plug-In . SVG Version: 6.00 Build 0)  -->
<!DOCTYPE svg PUBLIC "-//W3C//DTD SVG 1.1//EN" "http://www.w3.org/Graphics/SVG/1.1/DTD/svg11.dtd">
<svg version="1.1" id="Capa_1" xmlns="http://www.w3.org/2000/svg" xmlns:xlink="http://www.w3.org/1999/xlink" x="0px" y="0px"
	 width="106.048px" height="106.048px" viewBox="0 0 106.048 106.048" style="enable-background:new 0 0 106.048 106.048;"
	 xml:space="preserve">
<g>
	<path style="fill:#03a9f4" d="M87.354,74.44H66.187V61.257h21.168V74.44z M87.354,76.076H66.187v11.278h21.168V76.076z
		 M87.354,33.51H68.092h-1.905v11.291h21.168V33.51z M87.354,46.427H66.187v13.204h21.168V46.427z M64.556,46.427H41.492v13.204
		h23.063V46.427z M39.864,76.076H18.69v11.278h21.168V76.076H39.864z M39.864,61.257H18.69V74.44h21.168V61.257H39.864z
		 M106.048,21.209v63.629c0,11.666-9.543,21.21-21.21,21.21H21.209C9.543,106.048,0,96.504,0,84.838V21.209
		C0,9.543,9.543,0,21.209,0h63.628C96.505,0,106.048,9.543,106.048,21.209z M92.792,13.256H13.256v79.536h79.536V13.256z
		 M39.864,46.427H18.69v13.204h21.168V46.427H39.864z M64.556,61.257H41.492V74.44h23.063V61.257z M64.556,76.076H41.492v11.278
		h23.063V76.076z M39.864,33.51h-1.908H18.69v11.291h21.168V33.51H39.864z M64.556,33.51h-1.9h-19.26h-1.903v11.291h23.063V33.51z"
		/>
</g>
<g>
</g>
<g>
</g>
<g>
</g>
<g>
</g>
<g>
</g>
<g>
</g>
<g>
</g>
<g>
</g>
<g>
</g>
<g>
</g>
<g>
</g>
<g>
</g>
<g>
</g>
<g>
</g>
<g>
</g>
</svg>
